<?xml version="1.0" standalone="no"?>
<!DOCTYPE svg PUBLIC "-//W3C//DTD SVG 20010904//EN"
 "http://www.w3.org/TR/2001/REC-SVG-20010904/DTD/svg10.dtd">
<svg version="1.0" xmlns="http://www.w3.org/2000/svg"
 width="1280.000000pt" height="871.000000pt" viewBox="0 0 1280.000000 871.000000"
 preserveAspectRatio="xMidYMid meet">
<metadata>
Created by potrace 1.15, written by Peter Selinger 2001-2017
</metadata>
<g transform="translate(0.000000,871.000000) scale(0.100000,-0.100000)"
fill="#8bc34a" stroke="none">
<path d="M6200 7064 c-533 -29 -954 -106 -1401 -254 -797 -264 -1466 -680
-2044 -1272 -160 -163 -178 -183 -296 -323 -439 -524 -788 -1187 -983 -1870
-79 -280 -132 -547 -172 -875 -22 -184 -26 -556 -5 -646 24 -108 78 -178 138
-176 15 0 61 1 101 0 122 0 142 1 292 7 80 3 163 5 185 4 49 -3 89 -2 270 5
77 3 158 5 180 4 22 -1 63 -1 90 0 28 1 99 2 160 2 120 0 143 9 170 60 25 49
43 148 55 305 37 513 142 911 349 1324 481 958 1375 1640 2426 1850 245 49
410 64 685 64 275 0 440 -15 685 -64 1051 -210 1945 -892 2426 -1850 207 -413
312 -811 349 -1324 12 -157 30 -256 55 -305 27 -51 50 -60 170 -60 61 0 133
-1 160 -2 28 -1 68 -1 90 0 22 1 103 -1 180 -4 181 -7 221 -8 270 -5 22 1 105
-1 185 -4 150 -6 170 -7 293 -7 39 1 85 0 100 0 60 -2 114 68 138 176 21 90
17 462 -5 646 -80 661 -244 1218 -521 1770 -205 409 -436 752 -745 1105 -145
166 -424 432 -625 596 -766 625 -1769 1025 -2780 1109 -133 11 -524 20 -625
14z"/>
</g>
</svg>
